# xmcd
#
# Track frame offsets:
#	150
#	48659
#	80625
#	133350
#	178305
#	215880
#	238275
#	290049
#
# Disc length: 4344 seconds
#
# Revision: 1
# Processed by: cddbd v1.5.2PL0 Copyright (c) Steve Scherf et al.
# Submitted via: audiograbber 1.83.01
#
DISCID=8e10f608
DTITLE=Kempowski, Walter - Alles umsonst - CD 7
DYEAR=1900
DGENRE=
TTITLE0=CD 7 - Track  1
TTITLE1=CD 7 - Track  2
TTITLE2=CD 7 - Track  3
TTITLE3=CD 7 - Track  4
TTITLE4=CD 7 - Track  5
TTITLE5=CD 7 - Track  6
TTITLE6=CD 7 - Track  7
TTITLE7=CD 7 - Track  8
EXTD=
EXTT0=
EXTT1=
EXTT2=
EXTT3=
EXTT4=
EXTT5=
EXTT6=
EXTT7=
PLAYORDER=
